# xmcd CD database file
#
# Track frame offsets:
#	150
#	42917
#	59698
#	80060
#	112508
#	148274
#	163831
#	193424
#	217407
#	242316
#	251299
#	260106
#
# Disc length: 3655 seconds
#
# Revision: 0
# Processed by: cddbd v1.5.2PL0 Copyright (c) Steve Scherf et al.
# Submitted via: CDex 1.51
#
DISCID=b80e450c
DTITLE=Korner, Alexis and Tony Sheridan and Steve Baker - The Rias Session Live in Berlin, June 19, 1981
DYEAR=1981
DGENRE=Blues
TTITLE0=High Heel Sneakers
TTITLE1=Hallelujah, I Love Her So
TTITLE2=Juvenile Delinquent
TTITLE3=Will The Circle Be Unbroken
TTITLE4=Going Down Slow
TTITLE5=SonGlad You're Mine
TTITLE6=In The Evening
TTITLE7=Bright Lights, Big City
TTITLE8=Honky Tonk Women
TTITLE9=Rias Berlin Blues
TTITLE10=Lost John
TTITLE11=Diggin' My Potatoes
EXTD=YEAR: 1981
EXTT0=
EXTT1=
EXTT2=
EXTT3=
EXTT4=
EXTT5=
EXTT6=
EXTT7=
EXTT8=
EXTT9=
EXTT10=
EXTT11=
PLAYORDER=
